# xmcd
#
# Track frame offsets: 
#        150
#        29912
#        57998
#        80418
#        113652
#
# Disc length: 1923 seconds
#
# Revision: 0
# Processed by: cddbd v1.5.2PL0 Copyright (c) Steve Scherf et al.
# Submitted via: ExactAudioCopy v0.95a5
#
DISCID=3d078105
DTITLE=Nosso menininho - Nosso menininho
DYEAR=2008
DGENRE=Acid Punk
TTITLE0=Gabriel
TTITLE1=Yiang-Yiang
TTITLE2=Nascente
TTITLE3=Crianças
TTITLE4=Fontes Eternas
EXTD=
EXTT0=
EXTT1=
EXTT2=
EXTT3=
EXTT4=
PLAYORDER=
